<svg width="64" height="64" viewBox="0 0 64 64" fill="none" xmlns="http://www.w3.org/2000/svg">
<path d="M24.0817 45.1968V50.4737H18.8048V45.1968H24.0817ZM13.5277 8.24838H8.24756V29.3629H29.3621V24.0828H18.8048V18.8059H13.5279L13.5277 8.24838ZM24.0817 50.4737V55.7503L39.9188 55.7535V50.4734L24.0817 50.4737ZM39.9188 13.5283V18.8052H45.1957V13.5283H39.9188ZM13.5277 39.9194V45.1963L18.8048 45.1968L18.8046 39.9194H13.5277ZM18.8046 18.8048H24.0815V13.5279H18.8046V18.8048ZM24.0815 8.24756V13.5245L39.9188 13.5283L39.9187 8.24756L24.0815 8.24756ZM39.9187 50.4726H45.1956V45.1956H39.9187V50.4726ZM8.24764 34.6387V39.9156H13.5245L13.5278 34.6387H8.24764ZM45.1957 18.8052L45.1961 24.0817H50.473V18.8048L45.1957 18.8052ZM45.1956 45.1956L50.473 45.196V39.9191H45.1961L45.1956 45.1956ZM50.473 24.0817V39.9191L55.7499 39.9186L55.7531 24.0814L50.473 24.0817Z" fill="black"/>
</svg>
